<svg width="24" height="25" viewBox="0 0 24 25" fill="none" xmlns="http://www.w3.org/2000/svg">
<rect width="24" height="24" transform="translate(0 0.5)" fill="white"/>
<g clip-path="url(#clip0_38_3)">
<path d="M11.8488 10.5489C11.8464 10.5681 11.8464 10.5899 11.8464 10.6113C11.8464 10.6945 11.8629 10.7745 11.8927 10.8482L11.9193 10.9034L12.0246 11.1746L12.5716 12.5796L13.0486 13.8065C13.1847 14.0541 13.4026 14.2486 13.6655 14.3522L13.7471 14.3824C13.7503 14.3834 13.7557 14.3834 13.76 14.3846L15.0675 14.8373V14.8383L15.5673 15.0112L15.6015 15.0228C15.6027 15.0228 15.6047 15.024 15.6059 15.024C15.7044 15.049 15.801 15.0826 15.8931 15.1236C16.1063 15.2162 16.2996 15.3482 16.4647 15.5093C16.5313 15.5733 16.5925 15.6423 16.6491 15.7159C16.6973 15.7777 16.7414 15.8427 16.781 15.9104C16.9554 16.202 17.0556 16.5449 17.0556 16.91C17.0556 16.9752 17.0524 17.0382 17.0458 17.1022C17.0436 17.1305 17.0403 17.1577 17.0361 17.1847V17.1869C17.0317 17.2155 17.0264 17.2451 17.021 17.2741C17.0154 17.3023 17.0103 17.3303 17.0039 17.3583C17.0029 17.3615 17.0017 17.3649 17.0005 17.3681C16.9946 17.3965 16.987 17.4245 16.9793 17.4527C16.9723 17.4793 16.9636 17.5067 16.9538 17.5325C16.9453 17.5608 16.9353 17.5886 16.9238 17.6158C16.9141 17.6438 16.9026 17.6722 16.8897 17.699C16.8543 17.7812 16.8122 17.8602 16.7649 17.9356C16.704 18.0347 16.6343 18.1281 16.5569 18.2147C17.1704 17.5506 17.5783 16.6929 17.6798 15.7439C17.6969 15.5883 17.7056 15.4304 17.7056 15.2716C17.7056 15.1702 17.7012 15.0698 17.6947 14.9689C17.6174 13.8309 17.1028 12.813 16.3175 12.0867C16.101 11.8848 15.8643 11.7052 15.6098 11.5527L15.1291 11.3053L12.6928 10.0464C12.6179 10.014 12.5372 9.99743 12.4558 9.99756C12.1403 9.99756 11.8798 10.2398 11.8488 10.5489Z" fill="#7F7F7F"/>
<path d="M11.8488 10.5489C11.8464 10.5681 11.8464 10.5899 11.8464 10.6113C11.8464 10.6945 11.8629 10.7745 11.8927 10.8482L11.9193 10.9034L12.0246 11.1746L12.5716 12.5796L13.0486 13.8065C13.1847 14.0541 13.4026 14.2486 13.6655 14.3522L13.7471 14.3824C13.7503 14.3834 13.7557 14.3834 13.76 14.3846L15.0675 14.8373V14.8383L15.5673 15.0112L15.6015 15.0228C15.6027 15.0228 15.6047 15.024 15.6059 15.024C15.7044 15.049 15.801 15.0826 15.8931 15.1236C16.1063 15.2162 16.2996 15.3482 16.4647 15.5093C16.5313 15.5733 16.5925 15.6423 16.6491 15.7159C16.6973 15.7777 16.7414 15.8427 16.781 15.9104C16.9554 16.202 17.0556 16.5449 17.0556 16.91C17.0556 16.9752 17.0524 17.0382 17.0458 17.1022C17.0436 17.1305 17.0403 17.1577 17.0361 17.1847V17.1869C17.0317 17.2155 17.0264 17.2451 17.021 17.2741C17.0154 17.3023 17.0103 17.3303 17.0039 17.3583C17.0029 17.3615 17.0017 17.3649 17.0005 17.3681C16.9946 17.3965 16.987 17.4245 16.9793 17.4527C16.9723 17.4793 16.9636 17.5067 16.9538 17.5325C16.9453 17.5608 16.9353 17.5886 16.9238 17.6158C16.9141 17.6438 16.9026 17.6722 16.8897 17.699C16.8543 17.7812 16.8122 17.8602 16.7649 17.9356C16.704 18.0347 16.6343 18.1281 16.5569 18.2147C17.1704 17.5506 17.5783 16.6929 17.6798 15.7439C17.6969 15.5883 17.7056 15.4304 17.7056 15.2716C17.7056 15.1702 17.7012 15.0698 17.6947 14.9689C17.6174 13.8309 17.1028 12.813 16.3175 12.0867C16.101 11.8848 15.8643 11.7052 15.6098 11.5527L15.1291 11.3053L12.6928 10.0464C12.6179 10.014 12.5372 9.99743 12.4558 9.99756C12.1403 9.99756 11.8798 10.2398 11.8488 10.5489Z" fill="url(#paint0_linear_38_3)"/>
<path d="M7.511 5C7.16432 5.0062 6.88599 5.29187 6.88599 5.64115V16.825C6.88738 16.903 6.89175 16.98 6.89731 17.0583C6.90228 17.0995 6.90764 17.1423 6.91519 17.1839C7.07353 18.0815 7.84914 18.7627 8.78567 18.7627C9.11407 18.7627 9.42201 18.6784 9.69141 18.532C9.693 18.5308 9.69578 18.5292 9.69717 18.5292L9.79412 18.4702L10.1871 18.2373L10.6869 17.9387L10.6881 8.00171C10.6881 7.34136 10.3599 6.75922 9.85749 6.41334C9.84557 6.40613 9.83405 6.39853 9.82352 6.38993L7.87854 5.10923C7.78 5.04361 7.6612 5.0024 7.53385 5H7.511Z" fill="#7F7F7F"/>
<path d="M7.511 5C7.16432 5.0062 6.88599 5.29187 6.88599 5.64115V16.825C6.88738 16.903 6.89175 16.98 6.89731 17.0583C6.90228 17.0995 6.90764 17.1423 6.91519 17.1839C7.07353 18.0815 7.84914 18.7627 8.78567 18.7627C9.11407 18.7627 9.42201 18.6784 9.69141 18.532C9.693 18.5308 9.69578 18.5292 9.69717 18.5292L9.79412 18.4702L10.1871 18.2373L10.6869 17.9387L10.6881 8.00171C10.6881 7.34136 10.3599 6.75922 9.85749 6.41334C9.84557 6.40613 9.83405 6.39853 9.82352 6.38993L7.87854 5.10923C7.78 5.04361 7.6612 5.0024 7.53385 5H7.511Z" fill="url(#paint1_linear_38_3)"/>
<path d="M15.2231 15.2174L10.7513 17.8864L10.6869 17.9254V17.9396L10.187 18.2377L9.79426 18.4711L9.6979 18.5298L9.69135 18.533C9.42254 18.68 9.11441 18.7632 8.7862 18.7632C7.84987 18.7632 7.07327 18.0824 6.91553 17.1844C6.99043 17.8414 7.21274 18.4529 7.54809 18.9857C8.23867 20.0833 9.40645 20.8469 10.7574 20.9795H11.5835C12.3142 20.9027 12.9243 20.608 13.5656 20.2102L14.5518 19.6028C14.996 19.3161 16.2018 18.611 16.557 18.2153C16.6343 18.1287 16.704 18.0358 16.765 17.9364C16.8123 17.8608 16.8544 17.7818 16.8898 17.6996C16.9017 17.6716 16.913 17.6443 16.9239 17.6165C16.9343 17.5889 16.944 17.5611 16.9539 17.5329C16.9724 17.4789 16.9871 17.4247 17.0012 17.3689C17.0084 17.3371 17.0149 17.3057 17.0215 17.2745C17.0429 17.1566 17.0547 17.0356 17.0547 16.9102C17.0547 16.5451 16.9545 16.2022 16.7811 15.9109C16.7414 15.8429 16.6976 15.7779 16.6492 15.7165C16.5925 15.6425 16.5314 15.5739 16.4648 15.5098C16.2997 15.3488 16.107 15.2168 15.8932 15.1239C15.801 15.0829 15.7049 15.0491 15.606 15.0245C15.6048 15.0245 15.6028 15.0233 15.6016 15.0233L15.5674 15.0117L15.2231 15.2174Z" fill="#7F7F7F"/>
<path d="M15.2231 15.2174L10.7513 17.8864L10.6869 17.9254V17.9396L10.187 18.2377L9.79426 18.4711L9.6979 18.5298L9.69135 18.533C9.42254 18.68 9.11441 18.7632 8.7862 18.7632C7.84987 18.7632 7.07327 18.0824 6.91553 17.1844C6.99043 17.8414 7.21274 18.4529 7.54809 18.9857C8.23867 20.0833 9.40645 20.8469 10.7574 20.9795H11.5835C12.3142 20.9027 12.9243 20.608 13.5656 20.2102L14.5518 19.6028C14.996 19.3161 16.2018 18.611 16.557 18.2153C16.6343 18.1287 16.704 18.0358 16.765 17.9364C16.8123 17.8608 16.8544 17.7818 16.8898 17.6996C16.9017 17.6716 16.913 17.6443 16.9239 17.6165C16.9343 17.5889 16.944 17.5611 16.9539 17.5329C16.9724 17.4789 16.9871 17.4247 17.0012 17.3689C17.0084 17.3371 17.0149 17.3057 17.0215 17.2745C17.0429 17.1566 17.0547 17.0356 17.0547 16.9102C17.0547 16.5451 16.9545 16.2022 16.7811 15.9109C16.7414 15.8429 16.6976 15.7779 16.6492 15.7165C16.5925 15.6425 16.5314 15.5739 16.4648 15.5098C16.2997 15.3488 16.107 15.2168 15.8932 15.1239C15.801 15.0829 15.7049 15.0491 15.606 15.0245C15.6048 15.0245 15.6028 15.0233 15.6016 15.0233L15.5674 15.0117L15.2231 15.2174Z" fill="url(#paint2_linear_38_3)"/>
<path opacity="0.15" d="M17.0547 16.9102C17.0547 17.0356 17.0429 17.1568 17.0213 17.2747C17.0149 17.3059 17.0084 17.3371 17.001 17.3687C16.9871 17.4247 16.9724 17.4789 16.9539 17.5331C16.9442 17.5611 16.9343 17.5891 16.9239 17.6163C16.9132 17.6443 16.9017 17.6716 16.8896 17.6996C16.8541 17.7815 16.8126 17.8606 16.7652 17.9362C16.7043 18.0353 16.6346 18.1286 16.557 18.2151C16.2018 18.611 14.996 19.3161 14.5518 19.6028L13.5656 20.2102C12.8427 20.6587 12.1596 20.9761 11.2982 20.9979C11.2575 20.9991 11.2175 21.0001 11.178 21.0001C11.1224 21.0001 11.0675 20.9991 11.0125 20.9969C9.55387 20.9409 8.28178 20.1517 7.54809 18.9857C7.20479 18.4411 6.98851 17.8253 6.91553 17.1844C7.07327 18.0824 7.84987 18.7632 8.7862 18.7632C9.11441 18.7632 9.42254 18.6798 9.69135 18.533L9.6979 18.5296L9.79426 18.4711L10.187 18.2377L10.6869 17.9396V17.9254L10.7513 17.8864L15.2231 15.2172L15.5674 15.0117L15.6016 15.0233C15.6026 15.0233 15.6048 15.0245 15.606 15.0245C15.7049 15.0491 15.8012 15.0829 15.8932 15.1239C16.107 15.2168 16.2995 15.3488 16.4648 15.5098C16.5313 15.574 16.593 15.643 16.6492 15.7165C16.6976 15.7779 16.7414 15.8429 16.7811 15.9109C16.9545 16.2022 17.0547 16.5451 17.0547 16.9102Z" fill="#7F7F7F"/>
<path opacity="0.15" d="M17.0547 16.9102C17.0547 17.0356 17.0429 17.1568 17.0213 17.2747C17.0149 17.3059 17.0084 17.3371 17.001 17.3687C16.9871 17.4247 16.9724 17.4789 16.9539 17.5331C16.9442 17.5611 16.9343 17.5891 16.9239 17.6163C16.9132 17.6443 16.9017 17.6716 16.8896 17.6996C16.8541 17.7815 16.8126 17.8606 16.7652 17.9362C16.7043 18.0353 16.6346 18.1286 16.557 18.2151C16.2018 18.611 14.996 19.3161 14.5518 19.6028L13.5656 20.2102C12.8427 20.6587 12.1596 20.9761 11.2982 20.9979C11.2575 20.9991 11.2175 21.0001 11.178 21.0001C11.1224 21.0001 11.0675 20.9991 11.0125 20.9969C9.55387 20.9409 8.28178 20.1517 7.54809 18.9857C7.20479 18.4411 6.98851 17.8253 6.91553 17.1844C7.07327 18.0824 7.84987 18.7632 8.7862 18.7632C9.11441 18.7632 9.42254 18.6798 9.69135 18.533L9.6979 18.5296L9.79426 18.4711L10.187 18.2377L10.6869 17.9396V17.9254L10.7513 17.8864L15.2231 15.2172L15.5674 15.0117L15.6016 15.0233C15.6026 15.0233 15.6048 15.0245 15.606 15.0245C15.7049 15.0491 15.8012 15.0829 15.8932 15.1239C16.107 15.2168 16.2995 15.3488 16.4648 15.5098C16.5313 15.574 16.593 15.643 16.6492 15.7165C16.6976 15.7779 16.7414 15.8429 16.7811 15.9109C16.9545 16.2022 17.0547 16.5451 17.0547 16.9102Z" fill="url(#paint3_linear_38_3)"/>
</g>
<defs>
<linearGradient id="paint0_linear_38_3" x1="12.5722" y1="10.6827" x2="17.6906" y2="16.3478" gradientUnits="userSpaceOnUse">
<stop stop-color="#37BDFF"/>
<stop offset="0.25" stop-color="#26C6F4"/>
<stop offset="0.5" stop-color="#15D0E9"/>
<stop offset="0.75" stop-color="#3BD6DF"/>
<stop offset="1" stop-color="#62DCD4"/>
</linearGradient>
<linearGradient id="paint1_linear_38_3" x1="9.04789" y1="18.5208" x2="8.88226" y2="5.87162" gradientUnits="userSpaceOnUse">
<stop stop-color="#1B48EF"/>
<stop offset="0.5" stop-color="#2080F1"/>
<stop offset="1" stop-color="#26B8F4"/>
</linearGradient>
<linearGradient id="paint2_linear_38_3" x1="11.9851" y1="17.9956" x2="24.2789" y2="17.9956" gradientUnits="userSpaceOnUse">
<stop stop-color="#39D2FF"/>
<stop offset="0.5" stop-color="#248FFA"/>
<stop offset="1" stop-color="#104CF5"/>
</linearGradient>
<linearGradient id="paint3_linear_38_3" x1="11.9851" y1="17.9956" x2="24.2789" y2="17.9956" gradientUnits="userSpaceOnUse">
<stop stop-color="white"/>
<stop offset="1"/>
</linearGradient>
<clipPath id="clip0_38_3">
<rect width="12" height="16" fill="white" transform="translate(6 5)"/>
</clipPath>
</defs>
</svg>
