<svg width="24" height="25" viewBox="0 0 24 25" fill="none" xmlns="http://www.w3.org/2000/svg">
<rect width="24" height="24" transform="translate(0 0.5)" fill="white"/>
<path d="M19.3847 12.4423C19.3847 11.9023 19.3368 11.383 19.2477 10.8846H12.1508V13.8338H16.2062C16.0281 14.7823 15.4937 15.5853 14.6923 16.1253V18.043H17.1378C18.5627 16.7138 19.3847 14.7615 19.3847 12.4423Z" fill="#4285F4"/>
<path d="M12.1508 19.8846C14.1853 19.8846 15.8911 19.2061 17.1378 18.043L14.6923 16.1253C14.0209 16.5823 13.1646 16.8592 12.1508 16.8592C10.1916 16.8592 8.527 15.523 7.93102 13.723H5.42381V15.6892C6.66372 18.1746 9.20517 19.8846 12.1508 19.8846Z" fill="#34A853"/>
<path d="M7.93102 13.7161C7.78031 13.2592 7.69126 12.7746 7.69126 12.2692C7.69126 11.7638 7.78031 11.2792 7.93102 10.8223V8.85612H5.42381C4.91004 9.88073 4.61548 11.0369 4.61548 12.2692C4.61548 13.5015 4.91004 14.6577 5.42381 15.6823L7.37615 14.1453L7.93102 13.7161Z" fill="#FBBC05"/>
<path d="M12.1508 7.68612C13.2605 7.68612 14.247 8.07381 15.0348 8.8215L17.1926 6.64073C15.8842 5.40842 14.1853 4.65381 12.1508 4.65381C9.20517 4.65381 6.66372 6.36381 5.42381 8.85612L7.93102 10.8223C8.527 9.02227 10.1916 7.68612 12.1508 7.68612Z" fill="#EA4335"/>
</svg>
