<svg width="26" height="27" viewBox="0 0 26 27" fill="none" xmlns="http://www.w3.org/2000/svg">
<rect x="0.7" y="1.2" width="24.6" height="24.6" rx="6.3" fill="white"/>
<rect x="0.7" y="1.2" width="24.6" height="24.6" rx="6.3" stroke="#C9C9C9" stroke-width="0.6"/>
<path d="M20.3847 13.4423C20.3847 12.9023 20.3368 12.383 20.2477 11.8846H13.1508V14.8338H17.2062C17.0281 15.7823 16.4937 16.5853 15.6923 17.1253V19.043H18.1378C19.5627 17.7138 20.3847 15.7615 20.3847 13.4423Z" fill="#4285F4"/>
<path d="M13.1508 20.8846C15.1853 20.8846 16.8911 20.2061 18.1378 19.043L15.6923 17.1253C15.0209 17.5823 14.1646 17.8592 13.1508 17.8592C11.1916 17.8592 9.527 16.523 8.93102 14.723H6.42381V16.6892C7.66372 19.1746 10.2052 20.8846 13.1508 20.8846Z" fill="#34A853"/>
<path d="M8.93102 14.7161C8.78031 14.2592 8.69126 13.7746 8.69126 13.2692C8.69126 12.7638 8.78031 12.2792 8.93102 11.8223V9.85612H6.42381C5.91004 10.8807 5.61548 12.0369 5.61548 13.2692C5.61548 14.5015 5.91004 15.6577 6.42381 16.6823L8.37615 15.1453L8.93102 14.7161Z" fill="#FBBC05"/>
<path d="M13.1508 8.68612C14.2605 8.68612 15.247 9.07381 16.0348 9.8215L18.1926 7.64073C16.8842 6.40842 15.1853 5.65381 13.1508 5.65381C10.2052 5.65381 7.66372 7.36381 6.42381 9.85612L8.93102 11.8223C9.527 10.0223 11.1916 8.68612 13.1508 8.68612Z" fill="#EA4335"/>
</svg>
