<svg width="18" height="18" viewBox="0 0 18 18" fill="none" xmlns="http://www.w3.org/2000/svg">
<path d="M9 17C7.90719 17 6.87712 16.7908 5.9098 16.3725C4.94771 15.9542 4.09804 15.3765 3.36078 14.6392C2.62353 13.902 2.04575 13.0523 1.62745 12.0902C1.20915 11.1229 1 10.0928 1 9C1 7.90719 1.20915 6.87974 1.62745 5.91765C2.04575 4.95033 2.62091 4.09804 3.35294 3.36078C4.0902 2.62353 4.93987 2.04575 5.90196 1.62745C6.86928 1.20915 7.89935 1 8.99216 1C10.085 1 11.115 1.20915 12.0824 1.62745C13.0497 2.04575 13.902 2.62353 14.6392 3.36078C15.3765 4.09804 15.9542 4.95033 16.3725 5.91765C16.7908 6.87974 17 7.90719 17 9C17 10.0928 16.7908 11.1229 16.3725 12.0902C15.9542 13.0523 15.3765 13.902 14.6392 14.6392C13.902 15.3765 13.0497 15.9542 12.0824 16.3725C11.1203 16.7908 10.0928 17 9 17ZM9 15.6667C9.92549 15.6667 10.7908 15.4941 11.5961 15.149C12.4013 14.8039 13.1098 14.3281 13.7216 13.7216C14.3333 13.1098 14.8092 12.4013 15.149 11.5961C15.4941 10.7908 15.6667 9.92549 15.6667 9C15.6667 8.07451 15.4941 7.20915 15.149 6.40392C14.8039 5.59869 14.3255 4.8902 13.7137 4.27843C13.1072 3.66667 12.3987 3.19085 11.5882 2.85098C10.783 2.50588 9.91765 2.33333 8.99216 2.33333C8.06667 2.33333 7.20131 2.50588 6.39608 2.85098C5.59085 3.19085 4.88497 3.66667 4.27843 4.27843C3.6719 4.8902 3.19608 5.59869 2.85098 6.40392C2.51111 7.20915 2.34118 8.07451 2.34118 9C2.34118 9.92549 2.51111 10.7908 2.85098 11.5961C3.19608 12.4013 3.6719 13.1098 4.27843 13.7216C4.8902 14.3281 5.59869 14.8039 6.40392 15.149C7.20915 15.4941 8.07451 15.6667 9 15.6667Z" fill="#232323"/>
<path d="M8.75943 11.1653C8.32075 11.1653 8.12972 10.8511 8.12972 10.4617V10.2705C8.12972 9.34836 8.57547 8.74044 9.54481 8.18033C10.3656 7.69536 10.684 7.25137 10.684 6.55464C10.684 5.66667 9.99057 5.06557 8.95047 5.06557C8.00943 5.06557 7.38679 5.52322 7.1533 6.3429C7.03302 6.75956 6.87736 6.88934 6.55896 6.88934C6.19811 6.88934 6 6.68443 6 6.32923C6 6.03552 6.0566 5.80328 6.18396 5.53689C6.60142 4.56694 7.64151 4 9 4C10.7547 4 12 5.03142 12 6.49317C12 7.56557 11.4269 8.30328 10.5212 8.82923C9.62264 9.34153 9.36792 9.72404 9.36792 10.4413C9.36792 10.8716 9.19811 11.1653 8.75943 11.1653ZM8.75236 14C8.29953 14 7.94575 13.6585 7.94575 13.2213C7.94575 12.7773 8.29953 12.4426 8.75236 12.4426C9.21226 12.4426 9.55896 12.7773 9.55896 13.2213C9.55896 13.6585 9.21226 14 8.75236 14Z" fill="black"/>
</svg>
