<svg width="26" height="27" viewBox="0 0 26 27" fill="none" xmlns="http://www.w3.org/2000/svg">
<rect x="0.7" y="1.2" width="24.6" height="24.6" rx="4.3" fill="white"/>
<rect x="0.7" y="1.2" width="24.6" height="24.6" rx="4.3" stroke="#D5D5D5" stroke-width="0.6"/>
<g clip-path="url(#clip0_38_3)">
<path d="M12.8488 11.5489C12.8464 11.5681 12.8464 11.5899 12.8464 11.6113C12.8464 11.6945 12.8629 11.7745 12.8927 11.8482L12.9193 11.9034L13.0246 12.1746L13.5716 13.5796L14.0486 14.8065C14.1847 15.0541 14.4026 15.2486 14.6655 15.3522L14.7471 15.3824C14.7503 15.3834 14.7557 15.3834 14.76 15.3846L16.0675 15.8373V15.8383L16.5673 16.0112L16.6015 16.0228C16.6027 16.0228 16.6047 16.024 16.6059 16.024C16.7044 16.049 16.801 16.0826 16.8931 16.1236C17.1063 16.2162 17.2996 16.3482 17.4647 16.5093C17.5313 16.5733 17.5925 16.6423 17.6491 16.7159C17.6973 16.7777 17.7414 16.8427 17.781 16.9104C17.9554 17.202 18.0556 17.5449 18.0556 17.91C18.0556 17.9752 18.0524 18.0382 18.0458 18.1022C18.0436 18.1305 18.0403 18.1577 18.0361 18.1847V18.1869C18.0317 18.2155 18.0264 18.2451 18.021 18.2741C18.0154 18.3023 18.0103 18.3303 18.0039 18.3583C18.0029 18.3615 18.0017 18.3649 18.0005 18.3681C17.9946 18.3965 17.987 18.4245 17.9793 18.4527C17.9723 18.4793 17.9636 18.5067 17.9538 18.5325C17.9453 18.5608 17.9353 18.5886 17.9238 18.6158C17.9141 18.6438 17.9026 18.6722 17.8897 18.699C17.8543 18.7812 17.8122 18.8602 17.7649 18.9356C17.704 19.0347 17.6343 19.1281 17.5569 19.2147C18.1704 18.5506 18.5783 17.6929 18.6798 16.7439C18.6969 16.5883 18.7056 16.4304 18.7056 16.2716C18.7056 16.1702 18.7012 16.0698 18.6947 15.9689C18.6174 14.8309 18.1028 13.813 17.3175 13.0867C17.101 12.8848 16.8643 12.7052 16.6098 12.5527L16.1291 12.3053L13.6928 11.0464C13.6179 11.014 13.5372 10.9974 13.4558 10.9976C13.1403 10.9976 12.8798 11.2398 12.8488 11.5489Z" fill="#7F7F7F"/>
<path d="M12.8488 11.5489C12.8464 11.5681 12.8464 11.5899 12.8464 11.6113C12.8464 11.6945 12.8629 11.7745 12.8927 11.8482L12.9193 11.9034L13.0246 12.1746L13.5716 13.5796L14.0486 14.8065C14.1847 15.0541 14.4026 15.2486 14.6655 15.3522L14.7471 15.3824C14.7503 15.3834 14.7557 15.3834 14.76 15.3846L16.0675 15.8373V15.8383L16.5673 16.0112L16.6015 16.0228C16.6027 16.0228 16.6047 16.024 16.6059 16.024C16.7044 16.049 16.801 16.0826 16.8931 16.1236C17.1063 16.2162 17.2996 16.3482 17.4647 16.5093C17.5313 16.5733 17.5925 16.6423 17.6491 16.7159C17.6973 16.7777 17.7414 16.8427 17.781 16.9104C17.9554 17.202 18.0556 17.5449 18.0556 17.91C18.0556 17.9752 18.0524 18.0382 18.0458 18.1022C18.0436 18.1305 18.0403 18.1577 18.0361 18.1847V18.1869C18.0317 18.2155 18.0264 18.2451 18.021 18.2741C18.0154 18.3023 18.0103 18.3303 18.0039 18.3583C18.0029 18.3615 18.0017 18.3649 18.0005 18.3681C17.9946 18.3965 17.987 18.4245 17.9793 18.4527C17.9723 18.4793 17.9636 18.5067 17.9538 18.5325C17.9453 18.5608 17.9353 18.5886 17.9238 18.6158C17.9141 18.6438 17.9026 18.6722 17.8897 18.699C17.8543 18.7812 17.8122 18.8602 17.7649 18.9356C17.704 19.0347 17.6343 19.1281 17.5569 19.2147C18.1704 18.5506 18.5783 17.6929 18.6798 16.7439C18.6969 16.5883 18.7056 16.4304 18.7056 16.2716C18.7056 16.1702 18.7012 16.0698 18.6947 15.9689C18.6174 14.8309 18.1028 13.813 17.3175 13.0867C17.101 12.8848 16.8643 12.7052 16.6098 12.5527L16.1291 12.3053L13.6928 11.0464C13.6179 11.014 13.5372 10.9974 13.4558 10.9976C13.1403 10.9976 12.8798 11.2398 12.8488 11.5489Z" fill="url(#paint0_linear_38_3)"/>
<path d="M8.511 6C8.16432 6.0062 7.88599 6.29187 7.88599 6.64115V17.825C7.88738 17.903 7.89175 17.98 7.89731 18.0583C7.90228 18.0995 7.90764 18.1423 7.91519 18.1839C8.07353 19.0815 8.84914 19.7627 9.78567 19.7627C10.1141 19.7627 10.422 19.6784 10.6914 19.532C10.693 19.5308 10.6958 19.5292 10.6972 19.5292L10.7941 19.4702L11.1871 19.2373L11.6869 18.9387L11.6881 9.00171C11.6881 8.34136 11.3599 7.75922 10.8575 7.41334C10.8456 7.40613 10.8341 7.39853 10.8235 7.38993L8.87854 6.10923C8.78 6.04361 8.6612 6.0024 8.53385 6H8.511Z" fill="#7F7F7F"/>
<path d="M8.511 6C8.16432 6.0062 7.88599 6.29187 7.88599 6.64115V17.825C7.88738 17.903 7.89175 17.98 7.89731 18.0583C7.90228 18.0995 7.90764 18.1423 7.91519 18.1839C8.07353 19.0815 8.84914 19.7627 9.78567 19.7627C10.1141 19.7627 10.422 19.6784 10.6914 19.532C10.693 19.5308 10.6958 19.5292 10.6972 19.5292L10.7941 19.4702L11.1871 19.2373L11.6869 18.9387L11.6881 9.00171C11.6881 8.34136 11.3599 7.75922 10.8575 7.41334C10.8456 7.40613 10.8341 7.39853 10.8235 7.38993L8.87854 6.10923C8.78 6.04361 8.6612 6.0024 8.53385 6H8.511Z" fill="url(#paint1_linear_38_3)"/>
<path d="M16.2231 16.2174L11.7513 18.8864L11.6869 18.9254V18.9396L11.187 19.2377L10.7943 19.4711L10.6979 19.5298L10.6913 19.533C10.4225 19.68 10.1144 19.7632 9.7862 19.7632C8.84987 19.7632 8.07327 19.0824 7.91553 18.1844C7.99043 18.8414 8.21274 19.4529 8.54809 19.9857C9.23867 21.0833 10.4065 21.8469 11.7574 21.9795H12.5835C13.3142 21.9027 13.9243 21.608 14.5656 21.2102L15.5518 20.6028C15.996 20.3161 17.2018 19.611 17.557 19.2153C17.6343 19.1287 17.704 19.0358 17.765 18.9364C17.8123 18.8608 17.8544 18.7818 17.8898 18.6996C17.9017 18.6716 17.913 18.6443 17.9239 18.6165C17.9343 18.5889 17.944 18.5611 17.9539 18.5329C17.9724 18.4789 17.9871 18.4247 18.0012 18.3689C18.0084 18.3371 18.0149 18.3057 18.0215 18.2745C18.0429 18.1566 18.0547 18.0356 18.0547 17.9102C18.0547 17.5451 17.9545 17.2022 17.7811 16.9109C17.7414 16.8429 17.6976 16.7779 17.6492 16.7165C17.5925 16.6425 17.5314 16.5739 17.4648 16.5098C17.2997 16.3488 17.107 16.2168 16.8932 16.1239C16.801 16.0829 16.7049 16.0491 16.606 16.0245C16.6048 16.0245 16.6028 16.0233 16.6016 16.0233L16.5674 16.0117L16.2231 16.2174Z" fill="#7F7F7F"/>
<path d="M16.2231 16.2174L11.7513 18.8864L11.6869 18.9254V18.9396L11.187 19.2377L10.7943 19.4711L10.6979 19.5298L10.6913 19.533C10.4225 19.68 10.1144 19.7632 9.7862 19.7632C8.84987 19.7632 8.07327 19.0824 7.91553 18.1844C7.99043 18.8414 8.21274 19.4529 8.54809 19.9857C9.23867 21.0833 10.4065 21.8469 11.7574 21.9795H12.5835C13.3142 21.9027 13.9243 21.608 14.5656 21.2102L15.5518 20.6028C15.996 20.3161 17.2018 19.611 17.557 19.2153C17.6343 19.1287 17.704 19.0358 17.765 18.9364C17.8123 18.8608 17.8544 18.7818 17.8898 18.6996C17.9017 18.6716 17.913 18.6443 17.9239 18.6165C17.9343 18.5889 17.944 18.5611 17.9539 18.5329C17.9724 18.4789 17.9871 18.4247 18.0012 18.3689C18.0084 18.3371 18.0149 18.3057 18.0215 18.2745C18.0429 18.1566 18.0547 18.0356 18.0547 17.9102C18.0547 17.5451 17.9545 17.2022 17.7811 16.9109C17.7414 16.8429 17.6976 16.7779 17.6492 16.7165C17.5925 16.6425 17.5314 16.5739 17.4648 16.5098C17.2997 16.3488 17.107 16.2168 16.8932 16.1239C16.801 16.0829 16.7049 16.0491 16.606 16.0245C16.6048 16.0245 16.6028 16.0233 16.6016 16.0233L16.5674 16.0117L16.2231 16.2174Z" fill="url(#paint2_linear_38_3)"/>
<path opacity="0.15" d="M18.0547 17.9102C18.0547 18.0356 18.0429 18.1568 18.0213 18.2747C18.0149 18.3059 18.0084 18.3371 18.001 18.3687C17.9871 18.4247 17.9724 18.4789 17.9539 18.5331C17.9442 18.5611 17.9343 18.5891 17.9239 18.6163C17.9132 18.6443 17.9017 18.6716 17.8896 18.6996C17.8541 18.7815 17.8126 18.8606 17.7652 18.9362C17.7043 19.0353 17.6346 19.1286 17.557 19.2151C17.2018 19.611 15.996 20.3161 15.5518 20.6028L14.5656 21.2102C13.8427 21.6587 13.1596 21.9761 12.2982 21.9979C12.2575 21.9991 12.2175 22.0001 12.178 22.0001C12.1224 22.0001 12.0675 21.9991 12.0125 21.9969C10.5539 21.9409 9.28178 21.1517 8.54809 19.9857C8.20479 19.4411 7.98851 18.8253 7.91553 18.1844C8.07327 19.0824 8.84987 19.7632 9.7862 19.7632C10.1144 19.7632 10.4225 19.6798 10.6913 19.533L10.6979 19.5296L10.7943 19.4711L11.187 19.2377L11.6869 18.9396V18.9254L11.7513 18.8864L16.2231 16.2172L16.5674 16.0117L16.6016 16.0233C16.6026 16.0233 16.6048 16.0245 16.606 16.0245C16.7049 16.0491 16.8012 16.0829 16.8932 16.1239C17.107 16.2168 17.2995 16.3488 17.4648 16.5098C17.5313 16.574 17.593 16.643 17.6492 16.7165C17.6976 16.7779 17.7414 16.8429 17.7811 16.9109C17.9545 17.2022 18.0547 17.5451 18.0547 17.9102Z" fill="#7F7F7F"/>
<path opacity="0.15" d="M18.0547 17.9102C18.0547 18.0356 18.0429 18.1568 18.0213 18.2747C18.0149 18.3059 18.0084 18.3371 18.001 18.3687C17.9871 18.4247 17.9724 18.4789 17.9539 18.5331C17.9442 18.5611 17.9343 18.5891 17.9239 18.6163C17.9132 18.6443 17.9017 18.6716 17.8896 18.6996C17.8541 18.7815 17.8126 18.8606 17.7652 18.9362C17.7043 19.0353 17.6346 19.1286 17.557 19.2151C17.2018 19.611 15.996 20.3161 15.5518 20.6028L14.5656 21.2102C13.8427 21.6587 13.1596 21.9761 12.2982 21.9979C12.2575 21.9991 12.2175 22.0001 12.178 22.0001C12.1224 22.0001 12.0675 21.9991 12.0125 21.9969C10.5539 21.9409 9.28178 21.1517 8.54809 19.9857C8.20479 19.4411 7.98851 18.8253 7.91553 18.1844C8.07327 19.0824 8.84987 19.7632 9.7862 19.7632C10.1144 19.7632 10.4225 19.6798 10.6913 19.533L10.6979 19.5296L10.7943 19.4711L11.187 19.2377L11.6869 18.9396V18.9254L11.7513 18.8864L16.2231 16.2172L16.5674 16.0117L16.6016 16.0233C16.6026 16.0233 16.6048 16.0245 16.606 16.0245C16.7049 16.0491 16.8012 16.0829 16.8932 16.1239C17.107 16.2168 17.2995 16.3488 17.4648 16.5098C17.5313 16.574 17.593 16.643 17.6492 16.7165C17.6976 16.7779 17.7414 16.8429 17.7811 16.9109C17.9545 17.2022 18.0547 17.5451 18.0547 17.9102Z" fill="url(#paint3_linear_38_3)"/>
</g>
<defs>
<linearGradient id="paint0_linear_38_3" x1="13.5722" y1="11.6827" x2="18.6906" y2="17.3478" gradientUnits="userSpaceOnUse">
<stop stop-color="#37BDFF"/>
<stop offset="0.25" stop-color="#26C6F4"/>
<stop offset="0.5" stop-color="#15D0E9"/>
<stop offset="0.75" stop-color="#3BD6DF"/>
<stop offset="1" stop-color="#62DCD4"/>
</linearGradient>
<linearGradient id="paint1_linear_38_3" x1="10.0479" y1="19.5208" x2="9.88226" y2="6.87162" gradientUnits="userSpaceOnUse">
<stop stop-color="#1B48EF"/>
<stop offset="0.5" stop-color="#2080F1"/>
<stop offset="1" stop-color="#26B8F4"/>
</linearGradient>
<linearGradient id="paint2_linear_38_3" x1="12.9851" y1="18.9956" x2="25.2789" y2="18.9956" gradientUnits="userSpaceOnUse">
<stop stop-color="#39D2FF"/>
<stop offset="0.5" stop-color="#248FFA"/>
<stop offset="1" stop-color="#104CF5"/>
</linearGradient>
<linearGradient id="paint3_linear_38_3" x1="12.9851" y1="18.9956" x2="25.2789" y2="18.9956" gradientUnits="userSpaceOnUse">
<stop stop-color="white"/>
<stop offset="1"/>
</linearGradient>
<clipPath id="clip0_38_3">
<rect width="12" height="16" fill="white" transform="translate(7 6)"/>
</clipPath>
</defs>
</svg>
