<svg width="18" height="18" viewBox="0 0 18 18" fill="none" xmlns="http://www.w3.org/2000/svg">
<path d="M9 16C8.04379 16 7.14248 15.817 6.29608 15.451C5.45425 15.085 4.71078 14.5794 4.06569 13.9343C3.42059 13.2892 2.91503 12.5458 2.54902 11.7039C2.18301 10.8575 2 9.95621 2 9C2 8.04379 2.18301 7.14477 2.54902 6.30294C2.91503 5.45654 3.4183 4.71078 4.05882 4.06569C4.70392 3.42059 5.44739 2.91503 6.28922 2.54902C7.13562 2.18301 8.03693 2 8.99314 2C9.94935 2 10.8507 2.18301 11.6971 2.54902C12.5435 2.91503 13.2892 3.42059 13.9343 4.06569C14.5794 4.71078 15.085 5.45654 15.451 6.30294C15.817 7.14477 16 8.04379 16 9C16 9.95621 15.817 10.8575 15.451 11.7039C15.085 12.5458 14.5794 13.2892 13.9343 13.9343C13.2892 14.5794 12.5435 15.085 11.6971 15.451C10.8552 15.817 9.95621 16 9 16ZM9 14.8333C9.8098 14.8333 10.567 14.6824 11.2716 14.3804C11.9761 14.0784 12.5961 13.6621 13.1314 13.1314C13.6667 12.5961 14.083 11.9761 14.3804 11.2716C14.6824 10.567 14.8333 9.8098 14.8333 9C14.8333 8.1902 14.6824 7.43301 14.3804 6.72843C14.0784 6.02386 13.6598 5.40392 13.1245 4.86863C12.5938 4.33333 11.9739 3.91699 11.2647 3.61961C10.5601 3.31765 9.80294 3.16667 8.99314 3.16667C8.18333 3.16667 7.42614 3.31765 6.72157 3.61961C6.01699 3.91699 5.39935 4.33333 4.86863 4.86863C4.33791 5.40392 3.92157 6.02386 3.61961 6.72843C3.32222 7.43301 3.17353 8.1902 3.17353 9C3.17353 9.8098 3.32222 10.567 3.61961 11.2716C3.92157 11.9761 4.33791 12.5961 4.86863 13.1314C5.40392 13.6621 6.02386 14.0784 6.72843 14.3804C7.43301 14.6824 8.1902 14.8333 9 14.8333ZM5.81569 9C5.81569 8.82614 5.8683 8.6866 5.97353 8.58137C6.08333 8.47157 6.22745 8.41667 6.40588 8.41667H8.42353V6.39902C8.42353 6.22516 8.47614 6.08333 8.58137 5.97353C8.6866 5.86373 8.82157 5.80882 8.98627 5.80882C9.16013 5.80882 9.29967 5.86373 9.4049 5.97353C9.51471 6.07876 9.56961 6.22059 9.56961 6.39902V8.41667H11.5941C11.768 8.41667 11.9075 8.47157 12.0127 8.58137C12.1225 8.6866 12.1775 8.82614 12.1775 9C12.1775 9.16471 12.1225 9.29967 12.0127 9.4049C11.9075 9.51013 11.768 9.56275 11.5941 9.56275H9.56961V11.5873C9.56961 11.7611 9.51471 11.9029 9.4049 12.0127C9.29967 12.118 9.16013 12.1706 8.98627 12.1706C8.82157 12.1706 8.6866 12.118 8.58137 12.0127C8.47614 11.9029 8.42353 11.7611 8.42353 11.5873V9.56275H6.40588C6.23203 9.56275 6.0902 9.51013 5.98039 9.4049C5.87059 9.29967 5.81569 9.16471 5.81569 9Z" fill="#737373"/>
</svg>
