<svg width="18" height="18" viewBox="0 0 18 18" fill="none" xmlns="http://www.w3.org/2000/svg">
<path d="M5.46022 11.8119C4.97348 11.8119 4.60759 11.6892 4.36254 11.4438C4.12085 11.1984 4 10.8337 4 10.3497V5.46217C4 4.97478 4.12085 4.61009 4.36254 4.3681C4.60759 4.1227 4.97348 4 5.46022 4H10.2387C10.7187 4 11.0812 4.1227 11.3263 4.3681C11.5713 4.6135 11.6939 4.97819 11.6939 5.46217V6.51022H10.999V5.50307C10.999 5.24063 10.9302 5.04294 10.7925 4.91002C10.6583 4.77369 10.4686 4.70552 10.2236 4.70552H5.47029C5.22189 4.70552 5.03055 4.77369 4.89627 4.91002C4.76536 5.04294 4.6999 5.24063 4.6999 5.50307V10.3139C4.6999 10.5763 4.76536 10.774 4.89627 10.907C5.03055 11.0399 5.22189 11.1063 5.47029 11.1063H6.65358V11.8119H5.46022ZM7.76636 14C7.27962 14 6.91541 13.8773 6.67372 13.6319C6.43202 13.3865 6.31118 13.0218 6.31118 12.5378V7.65031C6.31118 7.16292 6.43202 6.79823 6.67372 6.55624C6.91541 6.31084 7.27962 6.18814 7.76636 6.18814H12.5448C13.0282 6.18814 13.3907 6.31084 13.6324 6.55624C13.8775 6.80164 14 7.16633 14 7.65031V12.5378C14 13.0218 13.8775 13.3865 13.6324 13.6319C13.3907 13.8773 13.0282 14 12.5448 14H7.76636ZM7.77644 13.2945H12.5347C12.7798 13.2945 12.9695 13.2263 13.1037 13.09C13.2414 12.9571 13.3102 12.7594 13.3102 12.4969V7.68609C13.3102 7.42365 13.2414 7.22597 13.1037 7.09305C12.9695 6.96012 12.7798 6.89366 12.5347 6.89366H7.77644C7.52803 6.89366 7.33669 6.96012 7.20242 7.09305C7.06814 7.22597 7.00101 7.42365 7.00101 7.68609V12.4969C7.00101 12.7594 7.06814 12.9571 7.20242 13.09C7.33669 13.2263 7.52803 13.2945 7.77644 13.2945ZM7.97281 10.089C7.97281 9.97989 8.00638 9.89127 8.07351 9.82311C8.14401 9.75153 8.23296 9.71575 8.34038 9.71575H9.8006V8.23824C9.8006 8.12577 9.83417 8.03545 9.90131 7.96728C9.96845 7.89571 10.0524 7.85992 10.1531 7.85992C10.2638 7.85992 10.3528 7.89571 10.4199 7.96728C10.4904 8.03545 10.5257 8.12577 10.5257 8.23824V9.71575H11.9859C12.0933 9.71575 12.1806 9.75153 12.2477 9.82311C12.3149 9.89127 12.3484 9.97989 12.3484 10.089C12.3484 10.1946 12.3149 10.2815 12.2477 10.3497C12.1806 10.4179 12.0933 10.4519 11.9859 10.4519H10.5257V11.9346C10.5257 12.047 10.4904 12.1374 10.4199 12.2055C10.3528 12.2737 10.2638 12.3078 10.1531 12.3078C10.0524 12.3078 9.96845 12.2737 9.90131 12.2055C9.83417 12.1339 9.8006 12.0436 9.8006 11.9346V10.4519H8.34038C8.23296 10.4519 8.14401 10.4179 8.07351 10.3497C8.00638 10.2815 7.97281 10.1946 7.97281 10.089Z" fill="#737373"/>
</svg>
