<svg width="18" height="18" viewBox="0 0 18 18" fill="none" xmlns="http://www.w3.org/2000/svg">
<path d="M2 7.66238C2 6.88185 2.14807 6.15098 2.44422 5.46978C2.74036 4.78386 3.15114 4.18071 3.67656 3.66036C4.20198 3.14 4.8086 2.73317 5.49642 2.43988C6.18901 2.14659 6.92938 1.99994 7.7175 1.99994C8.50563 1.99994 9.2436 2.14659 9.93142 2.43988C10.624 2.73317 11.233 3.14 11.7584 3.66036C12.2839 4.18071 12.6946 4.78386 12.9908 5.46978C13.2869 6.15098 13.435 6.88185 13.435 7.66238C13.435 8.31047 13.3299 8.92543 13.1198 9.50729C12.9144 10.0891 12.6278 10.6166 12.26 11.0897L15.7636 14.5808C15.84 14.6565 15.8973 14.744 15.9355 14.8433C15.9785 14.9427 16 15.0491 16 15.1626C16 15.3187 15.9642 15.4607 15.8925 15.5884C15.8257 15.7161 15.7301 15.8155 15.6059 15.8864C15.4817 15.9621 15.3385 15.9999 15.176 15.9999C15.0614 15.9999 14.9516 15.9787 14.8465 15.9361C14.7462 15.8982 14.653 15.8391 14.567 15.7587C13.1668 14.3695 12.3012 13.512 11.042 12.2605C10.5739 12.5916 10.058 12.8518 9.49437 13.041C8.93074 13.2302 8.33845 13.3248 7.7175 13.3248C6.92938 13.3248 6.18901 13.1782 5.49642 12.8849C4.8086 12.5916 4.20198 12.1848 3.67656 11.6644C3.15114 11.1441 2.74036 10.5433 2.44422 9.86208C2.14807 9.17615 2 8.44292 2 7.66238ZM3.22518 7.66238C3.22518 8.27735 3.33982 8.85448 3.56909 9.39376C3.80314 9.92831 4.12555 10.399 4.53634 10.8058C4.95189 11.2126 5.42955 11.532 5.96929 11.7638C6.51382 11.9955 7.09655 12.1114 7.7175 12.1114C8.33845 12.1114 8.9188 11.9955 9.45855 11.7638C10.0031 11.532 10.4807 11.2126 10.8915 10.8058C11.3023 10.399 11.6247 9.92831 11.8588 9.39376C12.0928 8.85448 12.2098 8.27735 12.2098 7.66238C12.2098 7.04741 12.0928 6.47266 11.8588 5.93811C11.6247 5.39883 11.3023 4.92577 10.8915 4.51895C10.4807 4.10739 10.0031 3.78808 9.45855 3.56101C8.9188 3.32922 8.33845 3.21332 7.7175 3.21332C7.09655 3.21332 6.51382 3.32922 5.96929 3.56101C5.42955 3.78808 4.95189 4.10739 4.53634 4.51895C4.12555 4.92577 3.80314 5.39883 3.56909 5.93811C3.33982 6.47266 3.22518 7.04741 3.22518 7.66238Z" fill="#DADADA"/>
</svg>
