<svg width="24" height="24" viewBox="0 0 24 24" fill="none" xmlns="http://www.w3.org/2000/svg">
<path fill-rule="evenodd" clip-rule="evenodd" d="M12.3734 3.29754C12.2832 2.90082 11.7168 2.90082 11.6266 3.29754L11.2669 4.88116C11.5084 4.8561 11.7535 4.84326 12.0015 4.84326C12.2485 4.84326 12.4925 4.85599 12.7331 4.88083L12.3734 3.29754ZM14.2416 5.20665C14.7113 5.36367 15.1595 5.56859 15.5807 5.81546L15.8946 4.20573C15.9724 3.8067 15.4546 3.57865 15.2115 3.90488L14.2416 5.20665ZM16.8149 6.72847C17.1791 7.06296 17.509 7.43443 17.7988 7.83663L18.7479 6.47704C18.9804 6.14401 18.6007 5.72687 18.2461 5.92575L16.8149 6.72847ZM18.5579 9.16566C18.7557 9.61676 18.9088 10.0914 19.0116 10.5836L20.437 9.7247C20.7847 9.51522 20.6092 8.98084 20.2047 9.01728L18.5579 9.16566ZM19.1632 12.1019C19.16 12.6108 19.1036 13.1083 18.9991 13.5887L20.6634 13.3862C21.0664 13.3371 21.1258 12.7782 20.742 12.646L19.1632 12.1019ZM18.5253 15.0212C18.3175 15.4813 18.0629 15.9163 17.7677 16.3198L19.3867 16.8218C19.7748 16.9421 20.0587 16.4558 19.7622 16.1784L18.5253 15.0212ZM16.7721 17.4242C16.3999 17.7606 15.9927 18.0587 15.5568 18.312L16.8337 19.4344C17.1391 19.7029 17.5979 19.3732 17.4394 18.9991L16.7721 17.4242ZM14.2073 18.9182C13.7372 19.0727 13.2458 19.1793 12.7388 19.2321L13.4504 20.777C13.6206 21.1466 14.1748 21.0301 14.1811 20.6234L14.2073 18.9182ZM11.2613 19.2318C10.7542 19.1788 10.2628 19.072 9.79266 18.9172L9.81893 20.6234C9.82519 21.0301 10.3794 21.1466 10.5496 20.777L11.2613 19.2318ZM8.44444 18.3109C8.00834 18.0574 7.60105 17.7589 7.2288 17.4221L6.56062 18.9991C6.4021 19.3732 6.86085 19.703 7.16633 19.4344L8.44444 18.3109ZM6.23483 16.319C5.93944 15.9151 5.68475 15.4797 5.47685 15.0191L4.23781 16.1784C3.94134 16.4558 4.22519 16.9421 4.6133 16.8218L6.23483 16.319ZM5.0041 13.5891C4.89948 13.1082 4.84298 12.6103 4.8399 12.1008L3.25798 12.646C2.87422 12.7782 2.93361 13.3371 3.33663 13.3862L5.0041 13.5891ZM4.99116 10.5852C5.09389 10.0925 5.24706 9.61745 5.44503 9.16592L3.79531 9.01728C3.3908 8.98084 3.21529 9.51521 3.56297 9.7247L4.99116 10.5852ZM6.20273 7.8388C6.49259 7.4362 6.82265 7.06436 7.18696 6.72955L5.75388 5.92575C5.3993 5.72687 5.01964 6.14401 5.25212 6.47704L6.20273 7.8388ZM8.41965 5.81708C8.84087 5.56992 9.28922 5.36474 9.75906 5.20747L8.78848 3.90488C8.5454 3.57865 8.02764 3.8067 8.10545 4.20573L8.41965 5.81708Z" fill="#878787"/>
<path fill-rule="evenodd" clip-rule="evenodd" d="M4.66269 12.0771C4.66269 8.029 7.95044 4.67029 12.0218 4.67029C16.0931 4.67029 19.3809 8.029 19.3809 12.0771C19.3809 16.1252 16.0931 19.4839 12.0218 19.4839C7.95044 19.4839 4.66269 16.1252 4.66269 12.0771ZM12.0218 5.81624C8.59881 5.81624 5.81121 8.64776 5.81121 12.0771C5.81121 15.5065 8.59881 18.338 12.0218 18.338C15.4448 18.338 18.2324 15.5065 18.2324 12.0771C18.2324 8.64776 15.4448 5.81624 12.0218 5.81624Z" fill="#878787"/>
<path fill-rule="evenodd" clip-rule="evenodd" d="M10.24 10.3555C10.3792 10.2269 10.5344 10.1114 10.7048 10.0123C10.8752 9.91326 11.052 9.83561 11.2323 9.77851L8.93933 5.7783L7.94704 6.35533L10.24 10.3555ZM14.6 11.7389C14.6838 12.1217 14.6808 12.5145 14.5982 12.8889L18.8065 12.8889L18.8112 11.7389L14.6 11.7389ZM11.1562 14.8217C10.7968 14.6958 10.4634 14.4921 10.1837 14.2183L8.00175 18.0249L8.99287 18.5958L11.1562 14.8217Z" fill="#878787"/>
<path fill-rule="evenodd" clip-rule="evenodd" d="M10.7313 13.0657C11.1451 13.7875 12.0652 14.0324 12.7731 13.6207C13.481 13.2091 13.7306 12.284 13.3168 11.5621C12.903 10.8403 11.9829 10.5954 11.275 11.0071C10.5671 11.4187 10.3175 12.3438 10.7313 13.0657ZM10.7048 10.0123C9.44278 10.7462 9.01382 12.3776 9.739 13.6427C10.4642 14.9078 12.0813 15.3493 13.3433 14.6155C14.6053 13.8816 15.0343 12.2502 14.3091 10.9851C13.5839 9.71997 11.9668 9.27847 10.7048 10.0123Z" fill="#878787"/>
</svg>
