<svg width="26" height="27" viewBox="0 0 26 27" fill="none" xmlns="http://www.w3.org/2000/svg">
<rect x="0.7" y="1.2" width="24.6" height="24.6" rx="6.3" fill="white"/>
<rect x="0.7" y="1.2" width="24.6" height="24.6" rx="6.3" stroke="#C9C9C9" stroke-width="0.6"/>
<path d="M17.1228 8.88477V9.16794C16.7491 9.23428 16.4663 9.35164 16.2743 9.52C15.9992 9.77003 15.6748 10.1527 15.4621 10.668L11.1328 19.5002H10.8448L6.49862 10.5532C6.29621 10.094 6.02103 9.8134 5.93799 9.71134C5.80824 9.55318 5.64864 9.42945 5.45921 9.34015C5.26977 9.25087 5.01416 9.19347 4.69238 9.16794V8.88477H8.9213V9.16794C8.43343 9.21388 8.20084 9.29551 8.05552 9.41286C7.9102 9.53022 7.83754 9.68074 7.83754 9.86441C7.83754 10.1195 7.95691 10.5175 8.19565 11.0584L11.4053 17.1429L14.5434 11.1349C14.7874 10.543 14.9897 10.1323 14.9897 9.90268C14.9897 9.75472 14.9145 9.61313 14.764 9.47791C14.6134 9.34271 14.4431 9.24704 14.085 9.19091C14.0591 9.18581 14.015 9.17816 13.9527 9.16794V8.88477H17.1228Z" fill="#1B1B1B"/>
<path d="M20.8462 8.88477V9.16794C20.4725 9.23428 20.1897 9.35164 19.9977 9.52C19.7226 9.77003 19.3982 10.1527 19.1855 10.668L15.386 19.5002H15.098L11.083 10.5532C10.8805 10.094 10.6054 9.8134 10.5223 9.71134C10.3926 9.55318 10.233 9.42945 10.0435 9.34015C9.85411 9.25087 9.6825 9.19347 9.36072 9.16794V8.88477H13.5056V9.16794C13.0178 9.21388 12.7852 9.29551 12.6399 9.41286C12.4945 9.53022 12.4219 9.68074 12.4219 9.86441C12.4219 10.1195 12.5412 10.5175 12.78 11.0584L15.6585 17.1429L18.2668 11.1349C18.5107 10.543 18.7131 10.1323 18.7131 9.90268C18.7131 9.75472 18.6379 9.61313 18.4874 9.47791C18.3368 9.34271 18.0825 9.24704 17.7244 9.19091C17.6985 9.18581 17.6544 9.17816 17.5921 9.16794V8.88477H20.8462Z" fill="#1B1B1B"/>
</svg>
