<svg width="24" height="25" viewBox="0 0 24 25" fill="none" xmlns="http://www.w3.org/2000/svg">
<rect width="24" height="24" transform="translate(0 0.5)" fill="white"/>
<path d="M16.1228 7.88477V8.16794C15.7491 8.23428 15.4663 8.35164 15.2743 8.52C14.9992 8.77003 14.6748 9.1527 14.4621 9.66803L10.1328 18.5002H9.84476L5.49862 9.55323C5.29621 9.09403 5.02103 8.8134 4.93799 8.71134C4.80824 8.55318 4.64864 8.42945 4.45921 8.34015C4.26977 8.25087 4.01416 8.19347 3.69238 8.16794V7.88477H7.9213V8.16794C7.43343 8.21388 7.20084 8.29551 7.05552 8.41286C6.9102 8.53022 6.83754 8.68074 6.83754 8.86441C6.83754 9.11954 6.95691 9.51752 7.19565 10.0584L10.4053 16.1429L13.5434 10.1349C13.7874 9.54303 13.9897 9.13229 13.9897 8.90268C13.9897 8.75472 13.9145 8.61313 13.764 8.47791C13.6134 8.34271 13.4431 8.24704 13.085 8.19091C13.0591 8.18581 13.015 8.17816 12.9527 8.16794V7.88477H16.1228Z" fill="#1B1B1B"/>
<path d="M19.8462 7.88477V8.16794C19.4725 8.23428 19.1897 8.35164 18.9977 8.52C18.7226 8.77003 18.3982 9.1527 18.1855 9.66803L14.386 18.5002H14.098L10.083 9.55323C9.88054 9.09403 9.60536 8.8134 9.52233 8.71134C9.39257 8.55318 9.23298 8.42945 9.04354 8.34015C8.85411 8.25087 8.6825 8.19347 8.36072 8.16794V7.88477H12.5056V8.16794C12.0178 8.21388 11.7852 8.29551 11.6399 8.41286C11.4945 8.53022 11.4219 8.68074 11.4219 8.86441C11.4219 9.11954 11.5412 9.51752 11.78 10.0584L14.6585 16.1429L17.2668 10.1349C17.5107 9.54303 17.7131 9.13229 17.7131 8.90268C17.7131 8.75472 17.6379 8.61313 17.4874 8.47791C17.3368 8.34271 17.0825 8.24704 16.7244 8.19091C16.6985 8.18581 16.6544 8.17816 16.5921 8.16794V7.88477H19.8462Z" fill="#1B1B1B"/>
</svg>
