<svg width="26" height="27" viewBox="0 0 26 27" fill="none" xmlns="http://www.w3.org/2000/svg">
<rect x="0.645808" y="1.14581" width="24.7084" height="24.7084" rx="5.35419" fill="white"/>
<rect x="0.645808" y="1.14581" width="24.7084" height="24.7084" rx="5.35419" stroke="#DEDEDE" stroke-width="0.708384"/>
<g clip-path="url(#clip0_39_5)">
<path d="M4 10.9213H7.43295L9.43194 14.7563L11.4569 10.9213H14.7991L9.76638 20H6.40249L7.78021 17.5943L4.00011 10.9213H4ZM18.6911 13.9856H14.9476L18.2702 8L22 8.00012L18.6911 13.9856ZM15.9282 14.5584C17.0769 14.5584 18.0079 15.2567 18.0079 16.1179C18.0079 16.9791 17.0769 17.6773 15.9282 17.6773C14.7798 17.6773 13.8489 16.9791 13.8489 16.1179C13.8489 15.2567 14.7799 14.5584 15.9282 14.5584Z" fill="#5F01D1"/>
</g>
<defs>
<clipPath id="clip0_39_5">
<rect width="18" height="12" fill="white" transform="translate(4 8)"/>
</clipPath>
</defs>
</svg>
