<svg width="26" height="27" viewBox="0 0 26 27" fill="none" xmlns="http://www.w3.org/2000/svg">
<rect x="0.645808" y="1.14581" width="24.7084" height="24.7084" rx="5.35419" fill="white"/>
<rect x="0.645808" y="1.14581" width="24.7084" height="24.7084" rx="5.35419" stroke="#DEDEDE" stroke-width="0.708384"/>
<path d="M18.1984 10.9906L18.5753 10.3926H12.7173L12.8156 11.0316C12.9194 11.0316 13.2007 11.0616 13.6595 11.1217C14.1184 11.1818 14.4406 11.2309 14.6263 11.2691C14.6099 11.433 14.3764 11.7156 13.9258 12.117C13.4752 12.5184 13 12.9185 12.5002 13.3172C12.0004 13.7158 11.7178 13.9616 11.6523 14.0545C11.5321 13.8797 11.0951 13.3035 10.3414 12.3259C9.58763 11.3483 9.02502 10.5892 8.65363 10.0485C8.79563 10.0103 9.16568 9.96934 9.76376 9.92564C10.3618 9.88197 10.7046 9.85191 10.792 9.83553L10.8903 9.25391H4.07374L4 9.8683C4.09832 9.89016 4.44925 9.94068 5.0528 10.0199C5.65635 10.0991 5.99636 10.1523 6.07283 10.1796C6.43332 10.4527 7.1502 11.2541 8.2235 12.584C9.29678 13.9138 9.87166 14.688 9.94812 14.9064V17.0036C9.94812 17.162 9.89349 17.2862 9.78426 17.3763C9.67503 17.4664 9.52206 17.5388 9.32543 17.5934C8.85571 17.7245 8.41056 17.7709 7.98999 17.7327L7.81793 18.429C8.14018 18.4399 8.45152 18.4454 8.75193 18.4454C9.05234 18.4454 9.44971 18.4413 9.94401 18.4331C10.4383 18.4249 10.7428 18.4208 10.8575 18.4208C13.0423 18.4208 14.1921 18.429 14.3068 18.4454L14.3887 17.659L12.365 17.5197C12.3377 15.8922 12.3377 15.0074 12.365 14.8654C12.4361 14.6634 12.7938 14.2743 13.4383 13.6981C14.0828 13.1219 14.7301 12.5867 15.3801 12.0925C16.03 11.5982 16.4206 11.3347 16.5517 11.3019C17.5621 11.1108 18.1111 11.007 18.1984 10.9906ZM22 11.0398L18.8047 16.4711L17.6987 16.1598L19.4766 10.2779L22 11.0398ZM16.4779 18.3798L17.9035 18.7812L18.4524 17.5606L16.9859 17.151L16.4779 18.3798Z" fill="#F50639"/>
</svg>
