<svg width="24" height="25" viewBox="0 0 24 25" fill="none" xmlns="http://www.w3.org/2000/svg">
<rect width="24" height="24" transform="translate(0 0.5)" fill="white"/>
<path d="M11.9949 6.5C11.9949 6.5 6.80194 6.5 5.49857 6.84952C4.8007 7.05076 4.22606 7.6438 4.03106 8.37461C3.69239 9.71971 3.69238 12.5053 3.69238 12.5053C3.69238 12.5053 3.69239 15.3015 4.03106 16.6254C4.22606 17.3562 4.79043 17.9386 5.49857 18.1399C6.8122 18.5 11.9949 18.5 11.9949 18.5C11.9949 18.5 17.1982 18.5 18.5016 18.1505C19.2097 17.9492 19.7741 17.3774 19.9588 16.636C20.3077 15.3015 20.3077 12.5159 20.3077 12.5159C20.3077 12.5159 20.318 9.71971 19.9588 8.37461C19.7741 7.6438 19.2097 7.06136 18.5016 6.87072C17.1982 6.50002 11.9949 6.5 11.9949 6.5ZM10.3426 9.93165L14.6633 12.5053L10.3426 15.0684V9.93165Z" fill="#FF0100"/>
</svg>
