<svg width="26" height="27" viewBox="0 0 26 27" fill="none" xmlns="http://www.w3.org/2000/svg">
<rect x="0.7" y="1.2" width="24.6" height="24.6" rx="6.3" fill="white"/>
<rect x="0.7" y="1.2" width="24.6" height="24.6" rx="6.3" stroke="#C9C9C9" stroke-width="0.6"/>
<path d="M12.9949 7.5C12.9949 7.5 7.80194 7.5 6.49857 7.84952C5.8007 8.05076 5.22606 8.6438 5.03106 9.37461C4.69239 10.7197 4.69238 13.5053 4.69238 13.5053C4.69238 13.5053 4.69239 16.3015 5.03106 17.6254C5.22606 18.3562 5.79043 18.9386 6.49857 19.1399C7.8122 19.5 12.9949 19.5 12.9949 19.5C12.9949 19.5 18.1982 19.5 19.5016 19.1505C20.2097 18.9492 20.7741 18.3774 20.9588 17.636C21.3077 16.3015 21.3077 13.5159 21.3077 13.5159C21.3077 13.5159 21.318 10.7197 20.9588 9.37461C20.7741 8.6438 20.2097 8.06136 19.5016 7.87072C18.1982 7.50002 12.9949 7.5 12.9949 7.5ZM11.3426 10.9316L15.6633 13.5053L11.3426 16.0684V10.9316Z" fill="#FF0100"/>
</svg>
