<svg width="14" height="14" viewBox="0 0 14 14" fill="none" xmlns="http://www.w3.org/2000/svg">
<path fill-rule="evenodd" clip-rule="evenodd" d="M3 0C1.34315 0 0 1.34315 0 3V11C0 12.6569 1.34315 14 3 14H11C12.6569 14 14 12.6569 14 11V3C14 1.34315 12.6569 0 11 0H3ZM3.22347 6.10986C2.73186 6.10986 2.33333 6.50839 2.33333 7C2.33333 7.49161 2.73186 7.89014 3.22347 7.89014H6.10986V10.7765C6.10986 11.2681 6.50839 11.6667 7 11.6667C7.49161 11.6667 7.89014 11.2681 7.89014 10.7765V7.89014H10.7765C11.2681 7.89014 11.6667 7.49161 11.6667 7C11.6667 6.50839 11.2681 6.10986 10.7765 6.10986H7.89014V3.22347C7.89014 2.73186 7.49161 2.33333 7 2.33333C6.50839 2.33333 6.10986 2.73186 6.10986 3.22347V6.10986H3.22347Z" fill="black" fill-opacity="0.6"/>
</svg>
