<svg width="18" height="18" viewBox="0 0 18 18" fill="none" xmlns="http://www.w3.org/2000/svg">
<path fill-rule="evenodd" clip-rule="evenodd" d="M9 0C4.02944 0 0 4.02944 0 9C0 13.9706 4.02944 18 9 18C13.9706 18 18 13.9706 18 9C18 4.02944 13.9706 0 9 0ZM6.7071 5.29261C6.31658 4.90209 5.68341 4.90209 5.29289 5.29261C4.90236 5.68314 4.90236 6.3163 5.29289 6.70683L7.58578 8.99972L5.29289 11.2926C4.90236 11.6831 4.90236 12.3163 5.29289 12.7068C5.68341 13.0974 6.31658 13.0974 6.7071 12.7068L9 10.4139L11.2929 12.7068C11.6834 13.0974 12.3166 13.0974 12.7071 12.7068C13.0976 12.3163 13.0976 11.6831 12.7071 11.2926L10.4142 8.99972L12.7071 6.70683C13.0976 6.3163 13.0976 5.68314 12.7071 5.29261C12.3166 4.90209 11.6834 4.90209 11.2929 5.29261L9 7.58551L6.7071 5.29261Z" fill="black" fill-opacity="0.4"/>
</svg>
